<svg id="svg" version="1.1" xmlns="http://www.w3.org/2000/svg" xmlns:xlink="http://www.w3.org/1999/xlink" width="400" height="414.3658810325477" viewBox="0, 0, 400,414.3658810325477"><g id="svgg"><path id="path0" d="M75.054 0.985 C 71.961 3.851,72.304 8.529,76.009 14.000 C 76.828 15.210,78.590 17.910,79.924 20.000 C 81.258 22.090,82.765 24.327,83.274 24.970 C 83.783 25.614,84.336 26.486,84.501 26.908 C 84.667 27.331,85.497 28.694,86.346 29.938 C 87.195 31.182,88.697 33.460,89.685 35.000 C 90.673 36.540,93.241 40.500,95.392 43.800 C 97.543 47.100,100.353 51.420,101.636 53.400 C 102.920 55.380,104.157 57.217,104.385 57.483 C 104.613 57.749,104.800 58.051,104.800 58.155 C 104.800 58.259,105.489 59.391,106.330 60.672 C 107.172 61.952,107.989 63.220,108.147 63.488 C 108.341 63.820,107.043 64.696,104.116 66.210 C 96.129 70.342,88.316 75.396,80.970 81.183 C 71.988 88.259,52.800 107.568,52.800 109.531 C 52.800 109.752,52.646 109.993,52.458 110.067 C 52.019 110.238,44.391 120.354,44.080 121.179 C 43.950 121.520,43.602 122.045,43.306 122.345 C 41.351 124.322,29.881 144.231,28.986 147.200 C 28.820 147.750,28.396 148.641,28.042 149.181 C 27.132 150.571,23.774 158.339,22.241 162.600 C 21.529 164.580,20.743 166.575,20.495 167.033 C 19.526 168.820,15.667 182.027,13.842 189.800 C 10.987 201.960,9.120 221.501,10.730 222.363 C 11.993 223.039,397.778 222.782,398.455 222.105 C 398.969 221.591,398.353 209.276,397.609 205.200 C 397.429 204.210,396.819 200.689,396.254 197.375 C 393.960 183.918,387.124 161.803,382.600 153.200 C 382.310 152.650,380.773 149.500,379.183 146.200 C 377.593 142.900,375.710 139.210,374.998 138.000 C 368.147 126.351,365.362 121.921,364.731 121.667 C 364.549 121.593,364.400 121.356,364.400 121.140 C 364.400 120.924,363.981 120.174,363.470 119.473 C 358.583 112.783,354.740 107.781,354.041 107.200 C 353.908 107.090,353.080 106.100,352.200 105.000 C 351.321 103.900,350.151 102.547,349.600 101.993 C 349.050 101.439,347.070 99.300,345.200 97.239 C 334.691 85.660,318.367 73.293,303.437 65.600 C 300.327 63.997,299.981 63.505,301.105 62.280 C 301.549 61.796,302.593 60.320,303.426 59.000 C 305.052 56.422,310.609 47.847,313.405 43.600 C 314.346 42.170,316.278 39.200,317.697 37.000 C 319.116 34.800,321.503 31.110,323.002 28.800 C 324.501 26.490,326.713 23.070,327.916 21.200 C 329.120 19.330,330.771 16.810,331.586 15.600 C 336.470 8.343,336.998 5.164,333.936 1.448 L 332.742 0.000 328.345 0.000 C 325.926 0.000,323.610 0.180,323.198 0.401 C 322.412 0.822,318.000 7.253,318.000 7.979 C 318.000 8.211,317.853 8.400,317.674 8.400 C 317.494 8.400,316.968 9.075,316.504 9.900 C 316.040 10.725,314.747 12.748,313.630 14.395 C 312.514 16.042,311.600 17.617,311.600 17.895 C 311.600 18.173,311.435 18.400,311.233 18.400 C 311.031 18.400,310.462 19.075,309.970 19.900 C 309.477 20.725,308.137 22.840,306.992 24.600 C 303.370 30.167,299.029 36.857,296.221 41.200 C 294.727 43.510,292.738 46.570,291.801 48.000 C 290.863 49.430,289.078 52.175,287.834 54.100 C 286.590 56.025,285.519 57.600,285.454 57.600 C 285.389 57.600,282.200 56.528,278.368 55.219 C 274.536 53.909,269.690 52.394,267.600 51.852 C 265.510 51.309,263.272 50.663,262.627 50.415 C 261.178 49.858,249.673 47.465,242.400 46.208 C 233.817 44.724,217.512 43.387,204.600 43.109 C 183.030 42.645,155.463 47.062,131.800 54.775 L 123.400 57.513 122.400 56.419 C 121.850 55.817,121.061 54.675,120.647 53.881 C 120.233 53.087,119.598 52.114,119.235 51.719 C 118.873 51.323,117.870 49.785,117.005 48.300 C 116.141 46.815,115.291 45.600,115.117 45.600 C 114.943 45.600,114.800 45.409,114.800 45.175 C 114.800 44.941,113.474 42.736,111.853 40.275 C 106.497 32.143,102.143 25.419,101.380 24.100 C 100.966 23.385,100.515 22.800,100.378 22.800 C 100.241 22.800,99.918 22.338,99.661 21.774 C 99.404 21.210,98.175 19.185,96.929 17.274 C 95.684 15.363,93.198 11.550,91.406 8.800 C 89.614 6.050,87.813 3.263,87.404 2.608 C 85.919 0.225,85.398 0.028,80.558 0.013 C 76.384 0.001,76.053 0.059,75.054 0.985 M123.786 117.413 C 127.308 118.331,129.886 119.889,133.028 123.000 C 151.768 141.557,124.916 170.699,104.898 153.529 C 88.142 139.158,102.425 111.849,123.786 117.413 M298.214 117.420 C 317.221 122.371,318.865 149.297,300.626 156.933 C 280.513 165.352,262.723 140.683,276.916 124.055 C 282.085 118.000,290.442 115.396,298.214 117.420 M183.471 249.062 C 183.322 249.211,183.200 286.387,183.200 331.675 L 183.200 414.018 234.500 413.907 L 285.800 413.797 289.765 412.894 C 318.295 406.398,335.250 389.351,340.785 361.600 C 342.547 352.766,342.791 351.268,343.188 346.800 C 344.812 328.544,342.919 307.875,338.318 293.631 C 329.675 266.873,309.308 251.972,277.600 249.208 C 270.727 248.609,230.290 248.670,229.680 249.280 C 228.972 249.988,228.991 281.818,229.700 282.276 C 229.975 282.454,240.280 282.705,252.600 282.833 C 276.245 283.078,279.706 283.360,284.200 285.403 C 284.860 285.703,286.632 286.497,288.139 287.167 C 292.080 288.920,300.800 295.705,300.800 297.019 C 300.800 297.087,301.552 298.276,302.471 299.659 C 310.580 311.868,312.187 340.465,305.726 357.600 C 302.435 366.327,295.667 373.806,288.168 377.000 C 278.155 381.266,278.038 381.278,245.101 381.480 L 216.802 381.653 216.701 315.326 L 216.600 249.000 200.171 248.896 C 191.135 248.838,183.620 248.913,183.471 249.062 " stroke="none" fill="#04a454" fill-rule="evenodd"></path><path id="path1" d="M367.867 249.067 C 367.720 249.213,367.600 286.383,367.600 331.667 L 367.600 414.000 383.800 414.000 L 400.000 414.000 400.000 331.400 L 400.000 248.800 384.067 248.800 C 375.303 248.800,368.013 248.920,367.867 249.067 " stroke="none" fill="#487cc4" fill-rule="evenodd"></path><path id="path2" d="M64.821 249.245 C 28.555 252.472,6.419 272.482,0.763 307.150 C -0.334 313.873,-0.195 352.239,0.947 358.000 C 6.541 386.228,20.126 402.812,44.016 410.577 C 54.409 413.956,54.954 414.000,86.044 414.000 L 113.209 414.000 113.105 397.900 L 113.000 381.800 91.800 381.560 C 67.445 381.284,66.168 381.167,58.600 378.508 C 51.901 376.154,47.909 373.592,43.597 368.878 C 38.479 363.283,36.076 357.651,33.495 345.200 C 32.885 342.258,32.885 321.742,33.495 318.800 C 37.364 300.138,42.719 292.325,55.610 286.538 C 63.797 282.862,68.897 282.402,101.500 282.401 L 125.600 282.400 125.600 348.200 L 125.600 414.000 142.601 414.000 L 159.602 414.000 159.501 331.500 L 159.400 249.000 114.000 248.954 C 89.030 248.929,66.900 249.060,64.821 249.245 " stroke="none" fill="#ec3424" fill-rule="evenodd"></path></g></svg>